<svg width="196" height="65" viewBox="0 0 196 65" fill="none" xmlns="http://www.w3.org/2000/svg">
<g clip-path="url(#clip0_401_332)">
<path d="M49.8002 63.9336C49.6495 63.9336 49.5742 63.8583 49.5742 63.7077L49.6182 32.5033C49.6182 32.384 49.6778 32.3213 49.8002 32.3213H54.8869C55.0061 32.3213 55.0689 32.3809 55.0689 32.5033L55.1128 63.7077C55.1128 63.8583 55.0532 63.9336 54.9308 63.9336H49.797H49.8002Z" fill="#757575"/>
<path d="M59.5188 63.9336C59.2772 63.9336 59.1548 63.8269 59.1548 63.6166L59.1108 32.6853C59.1108 32.4437 59.2301 32.3213 59.4748 32.3213H63.5637L71.2392 50.2174L71.0133 32.6853C71.0133 32.4437 71.1482 32.3213 71.4213 32.3213H75.918C76.1 32.3213 76.191 32.4437 76.191 32.6853L76.235 63.6606C76.235 63.8426 76.1596 63.9336 76.009 63.9336H72.0112L64.1536 47.2206L64.4706 63.5727C64.4706 63.8143 64.3356 63.9367 64.0626 63.9367H59.5219L59.5188 63.9336Z" fill="#757575"/>
<path d="M88.4951 64.3888C86.8602 64.3888 85.3759 63.9809 84.0454 63.1618C82.7118 62.346 81.6448 61.2476 80.8446 59.8701C80.0413 58.4925 79.6396 56.9549 79.6396 55.2603V40.8631C79.6396 39.2282 80.0413 37.722 80.8446 36.3444C81.648 34.9668 82.7212 33.8685 84.0705 33.0526C85.4167 32.2368 86.8947 31.8257 88.4982 31.8257C90.1018 31.8257 91.6708 32.2273 93.017 33.0307C94.3632 33.834 95.4301 34.9166 96.2177 36.2785C97.0054 37.6404 97.3976 39.1718 97.3976 40.8663V42.9562C97.3976 43.0786 97.3223 43.1382 97.1717 43.1382H92.085C91.9626 43.1382 91.903 43.0786 91.903 42.9562V41.2303C91.903 40.0786 91.5766 39.1247 90.9271 38.3684C90.2744 37.6122 89.4648 37.2325 88.4982 37.2325C87.6196 37.2325 86.8414 37.5965 86.1604 38.3214C85.4795 39.0494 85.1374 39.8966 85.1374 40.8663V55.2635C85.1374 56.2614 85.4701 57.118 86.1353 57.8304C86.8006 58.5427 87.5882 58.8973 88.4982 58.8973C89.4679 58.8973 90.2775 58.549 90.9271 57.8523C91.5766 57.1557 91.903 56.2927 91.903 55.2635V53.0386H88.7242C88.5736 53.0386 88.4982 52.9633 88.4982 52.8127V47.726C88.4982 47.5753 88.5736 47.5 88.7242 47.5H97.2188C97.338 47.5 97.4008 47.5753 97.4008 47.726V55.2666C97.4008 56.9611 96.9991 58.4988 96.1958 59.8763C95.3924 61.2539 94.3255 62.3522 92.995 63.1681C91.6614 63.984 90.1645 64.3951 88.4982 64.3951L88.4951 64.3888Z" fill="#757575"/>
<path d="M100.806 63.9336C100.683 63.9336 100.624 63.8583 100.624 63.7077L100.667 32.5033C100.667 32.384 100.727 32.3213 100.849 32.3213H115.429C115.548 32.3213 115.611 32.3966 115.611 32.5472V37.6339C115.611 37.7563 115.551 37.8159 115.429 37.8159H106.118V44.9016H115.429C115.548 44.9016 115.611 44.9643 115.611 45.0836L115.658 50.2174C115.658 50.3397 115.598 50.3994 115.476 50.3994H106.118V58.3479H115.476C115.595 58.3479 115.658 58.4232 115.658 58.5739V63.7516C115.658 63.874 115.598 63.9336 115.476 63.9336H100.806Z" fill="#757575"/>
<path d="M120.107 63.9336C119.866 63.9336 119.743 63.8269 119.743 63.6166L119.699 32.6853C119.699 32.4437 119.818 32.3213 120.063 32.3213H124.152L131.828 50.2174L131.602 32.6853C131.602 32.4437 131.737 32.3213 132.01 32.3213H136.506C136.688 32.3213 136.779 32.4437 136.779 32.6853L136.823 63.6606C136.823 63.8426 136.748 63.9336 136.597 63.9336H132.6L124.742 47.2206L125.059 63.5727C125.059 63.8143 124.924 63.9367 124.651 63.9367H120.11L120.107 63.9336Z" fill="#757575"/>
<path d="M141 63.9336C140.85 63.9336 140.774 63.8583 140.774 63.7077L140.818 32.5033C140.818 32.384 140.878 32.3213 141 32.3213H146.087C146.206 32.3213 146.269 32.3809 146.269 32.5033L146.313 63.7077C146.313 63.8583 146.253 63.9336 146.131 63.9336H140.997H141Z" fill="#757575"/>
<path d="M158.711 64.389C157.076 64.389 155.585 63.9717 154.236 63.1401C152.89 62.3085 151.807 61.2039 150.988 59.8232C150.169 58.4456 149.761 56.9237 149.761 55.2574L149.808 40.8602C149.808 39.1939 150.21 37.6814 151.013 36.3195C151.817 34.9576 152.899 33.8656 154.261 33.0497C155.623 32.2338 157.107 31.8228 158.711 31.8228C160.314 31.8228 161.83 32.2307 163.161 33.0497C164.491 33.8687 165.561 34.9576 166.361 36.3195C167.165 37.6814 167.566 39.1971 167.566 40.8602L167.61 55.2574C167.61 56.9237 167.209 58.4456 166.405 59.8232C165.602 61.2008 164.529 62.3054 163.179 63.1401C161.833 63.9717 160.339 64.389 158.705 64.389H158.711ZM158.711 58.8944C159.618 58.8944 160.415 58.5241 161.096 57.7804C161.777 57.0398 162.119 56.1988 162.119 55.2605L162.072 40.8634C162.072 39.8655 161.755 39.0182 161.118 38.3184C160.481 37.6218 159.68 37.2735 158.711 37.2735C157.741 37.2735 156.969 37.6155 156.304 38.2965C155.639 38.9774 155.306 39.8341 155.306 40.8634V55.2605C155.306 56.2584 155.639 57.1151 156.304 57.8274C156.969 58.5398 157.773 58.8944 158.711 58.8944Z" fill="#757575"/>
<path d="M169.387 63.7077L175.019 32.5033C175.051 32.384 175.126 32.3213 175.245 32.3213H181.832C181.951 32.3213 182.03 32.3809 182.058 32.5033L187.462 63.7077C187.49 63.8583 187.43 63.9336 187.28 63.9336H182.237C182.114 63.9336 182.039 63.8583 182.011 63.7077L181.512 60.3908H175.336L174.837 63.7077C174.806 63.8583 174.731 63.9336 174.612 63.9336H169.569C169.446 63.9336 169.387 63.8583 169.387 63.7077ZM176.243 55.5331H180.605L178.744 42.7709L178.471 41.0889L178.289 42.7709L176.246 55.5331H176.243Z" fill="#FB8C00"/>
<path d="M190.684 63.9336C190.534 63.9336 190.458 63.8583 190.458 63.7077L190.502 32.5033C190.502 32.384 190.562 32.3213 190.684 32.3213H195.771C195.89 32.3213 195.953 32.3809 195.953 32.5033L195.997 63.7077C195.997 63.8583 195.937 63.9336 195.815 63.9336H190.681H190.684Z" fill="#FB8C00"/>
<path d="M38.3402 10.7381L19.9954 0.144156C19.9954 0.144156 19.9703 0.131604 19.9577 0.125328C19.9452 0.119052 19.9358 0.112776 19.9232 0.109638C19.8542 0.0751201 19.7851 0.0500161 19.713 0.031188C19.7036 0.031188 19.6973 0.031188 19.6879 0.024912C19.531 -0.00960609 19.3678 -0.00960609 19.2109 0.024912C19.2015 0.024912 19.1952 0.024912 19.1858 0.031188C19.1136 0.0500161 19.0414 0.0751201 18.9755 0.109638C18.963 0.115914 18.9536 0.119052 18.941 0.125328C18.9285 0.131604 18.9159 0.13788 18.9034 0.144156L0.549151 10.7381C0.210247 10.9326 0 11.2966 0 11.6889V38.2145C0 38.6067 0.210247 38.9707 0.549151 39.1653L18.3479 49.4391V58.8532L16.7758 59.76V62.8447L19.4462 64.3855L22.1167 62.8447V59.76L20.5445 58.8532V49.4391L38.3433 39.1653C38.6822 38.9707 38.8925 38.6067 38.8925 38.2145V11.6889C38.8925 11.2966 38.6822 10.9326 38.3433 10.7381H38.3402ZM36.6927 28.7377L31.493 31.7408V25.4365L36.6927 22.4334V28.7377ZM18.3448 20.378L10.732 15.9817L18.3448 11.7736V20.378ZM20.5414 11.7736L28.1542 15.9817L20.5414 20.378V11.7736ZM19.9734 8.94941C19.6439 8.7674 19.2423 8.7674 18.9096 8.94941L12.3512 12.5738L19.44 2.9464L26.5287 12.5738L19.9703 8.94941H19.9734ZM18.3448 22.9135V42.0397L10.4496 18.354L18.3448 22.9135ZM20.5414 22.9135L28.4366 18.354L20.5414 42.0397V22.9135ZM30.6897 14.5162L23.4409 4.66916L35.5913 11.6858L30.6897 14.5162ZM8.19334 14.5162L3.29177 11.6858L15.4484 4.6723L8.19961 14.5194L8.19334 14.5162ZM7.39315 16.5905V22.8947L2.19347 19.8916V13.5874L7.39315 16.5905ZM2.19347 22.4303L7.39315 25.4334V31.7376L2.19347 28.7346V22.4303ZM9.58975 22.7315L17.485 46.4078L9.58975 41.8514V22.7315ZM29.2933 22.7315V41.8514L21.3981 46.4078L29.2933 22.7315ZM36.6896 19.8948L31.4899 22.8979V16.5936L36.6896 13.5905V19.8948ZM2.19661 31.2732L7.39629 34.2763V40.5837L2.19661 37.5806V31.2732ZM31.493 40.5837V34.2763L36.6927 31.2732V37.5806L31.493 40.5837Z" fill="#FB8C00"/>
</g>
<defs>
<clipPath id="clip0_401_332">
<rect width="196" height="64.3888" fill="white"/>
</clipPath>
</defs>
</svg>
